<svg width="769" height="828" viewBox="0 0 769 828" fill="none" xmlns="http://www.w3.org/2000/svg">
<path d="M400.98 828C563.352 828 694.98 804.719 694.98 776C694.98 747.281 563.352 724 400.98 724C238.609 724 106.98 747.281 106.98 776C106.98 804.719 238.609 828 400.98 828Z" fill="#D68814"/>
<path d="M155.964 286.205C155.964 210.449 267.046 149.037 404.074 149.037C541.101 149.037 652.184 210.449 652.184 286.205" stroke="#D68814" stroke-width="2" stroke-miterlimit="10"/>
<path d="M482.087 201.851H280.237C240.313 134.567 240.313 67.2836 280.237 0H482.087C426.265 67.2836 426.265 134.567 482.087 201.851Z" fill="#E6E6E6"/>
<path d="M422.814 24.0298H309.073V38.4477H422.814V24.0298Z" fill="#FF9800"/>
<path d="M422.814 71.2886H272.227V76.0945H422.814V71.2886Z" fill="white"/>
<path d="M422.814 96.1194H272.227V100.925H422.814V96.1194Z" fill="white"/>
<path d="M422.814 120.95H272.227V125.756H422.814V120.95Z" fill="white"/>
<path d="M562.677 648.659C562.677 712.676 602.837 764.477 652.467 764.477Z" fill="#D68814"/>
<path d="M652.467 764.477C652.467 699.741 697.284 647.358 752.669 647.358Z" fill="#FF9800"/>
<path d="M595.209 654.463C595.209 715.271 620.819 764.477 652.467 764.477Z" fill="#FF9800"/>
<path d="M652.467 764.477C652.467 681.759 704.268 614.825 768.284 614.825Z" fill="#D68814"/>
<path d="M633.578 765.293C633.578 765.293 646.311 764.901 650.149 762.168C653.987 759.435 669.737 756.172 670.689 760.555C671.641 764.938 689.826 782.353 675.449 782.469C661.073 782.585 642.045 780.229 638.214 777.896C634.384 775.563 633.578 765.293 633.578 765.293Z" fill="#A8A8A8"/>
<path opacity="0.2" d="M675.706 780.943C661.329 781.059 642.301 778.704 638.471 776.371C635.554 774.594 634.392 768.218 634.003 765.277C633.733 765.288 633.578 765.293 633.578 765.293C633.578 765.293 634.384 775.563 638.214 777.896C642.045 780.229 661.073 782.585 675.449 782.469C679.599 782.435 681.032 780.959 680.954 778.772C680.377 780.093 678.794 780.918 675.706 780.943Z" fill="black"/>
<path d="M357.83 157.682C358.999 158.218 360.405 157.419 361.094 156.333C363.718 152.199 358.887 146.867 359.933 142.084C360.771 138.251 365.126 135.976 366.016 132.156C366.882 128.443 364.216 124.259 366.018 120.899C367.429 118.268 370.956 117.575 373.906 118.036C376.857 118.497 379.658 119.794 382.639 119.976C386.611 120.218 390.397 118.47 394.281 117.603C398.165 116.737 402.903 117.076 405.188 120.334C408.122 124.518 405.146 130.343 406.167 135.35C406.978 139.325 410.306 142.617 410.378 146.674C410.403 148.116 406.613 146.954 406.814 148.382C407.016 149.81 405.224 148.553 406.656 148.383C407.241 148.24 407.765 147.915 408.153 147.454C408.54 146.993 408.771 146.421 408.812 145.82C408.982 144.631 411.217 144.234 411.191 143.033C411.131 140.218 416.221 142.116 417.059 139.428C418.986 133.161 418.591 126.409 415.945 120.41C414.803 117.849 413.249 115.425 412.698 112.676C411.95 108.943 413.127 104.936 411.893 101.335C410.231 96.4809 404.732 94.0066 399.626 93.504C394.521 93.0015 389.332 93.901 384.256 93.16C379.708 92.4962 375.305 90.5252 370.718 90.8108C365.214 91.1535 360.424 94.6998 356.609 98.6817C352.794 102.664 349.557 107.243 345.224 110.654C343.897 111.567 342.674 112.621 341.574 113.797C339.367 116.487 339.143 120.318 339.757 123.742C340.371 127.167 341.706 130.434 342.271 133.867C342.801 137.093 342.637 140.389 342.865 143.651C343.094 146.912 343.771 150.273 345.735 152.886C346.522 153.954 347.541 154.828 348.717 155.442C349.892 156.056 351.192 156.394 352.518 156.43C353.436 156.451 354.212 155.626 355.139 155.841C356.297 156.11 356.801 157.21 357.83 157.682Z" fill="#2F2E41"/>
<path d="M318.546 394.707L321.95 415.619L328.759 406.378L324.868 392.275L318.546 394.707Z" fill="#A0616A"/>
<path d="M322.923 236.651L317.562 250.777C317.562 250.777 312.224 322.73 312.224 328.08C312.224 333.43 316.114 402.002 317.573 404.92C317.573 404.92 323.896 395.679 332.163 397.138C340.431 398.597 337.026 372.822 337.026 372.822L344.808 309.113L343.349 277.016L322.923 236.651Z" fill="#D9D9E3"/>
<path opacity="0.1" d="M322.923 236.651L317.562 250.777C317.562 250.777 312.224 322.73 312.224 328.08C312.224 333.43 316.114 402.002 317.573 404.92C317.573 404.92 323.896 395.679 332.163 397.138C340.431 398.597 337.026 372.822 337.026 372.822L344.808 309.113L343.349 277.016L322.923 236.651Z" fill="black"/>
<path d="M355.993 158.838C355.993 158.838 372.042 199.69 362.802 207.471C353.561 215.252 414.352 194.34 414.352 194.34L412.893 188.991C412.893 188.991 392.954 181.209 402.68 158.838C412.407 136.467 355.993 158.838 355.993 158.838Z" fill="#A0616A"/>
<path opacity="0.1" d="M355.993 158.838C355.993 158.838 372.042 199.69 362.802 207.471C353.561 215.252 414.352 194.34 414.352 194.34L412.893 188.991C412.893 188.991 392.954 181.209 402.68 158.838C412.407 136.467 355.993 158.838 355.993 158.838Z" fill="black"/>
<path d="M330.704 704.497C330.704 704.497 323.896 702.551 320.005 707.415C316.114 712.278 301.525 724.436 301.525 724.436C301.525 724.436 273.318 721.518 269.427 735.621C265.537 749.725 313.683 749.725 325.355 746.321C337.026 742.916 339.458 746.321 339.458 746.321C339.458 746.321 375.446 749.239 375.446 743.403C375.446 737.567 372.042 717.627 372.042 717.627L330.704 704.497Z" fill="#D9D9E3"/>
<path d="M444.991 737.08L438.668 756.533C438.668 756.533 419.702 782.795 430.401 788.145C441.1 793.494 479.034 798.844 479.034 784.74V757.992C479.034 757.992 475.143 739.026 471.252 737.08C467.362 735.135 444.991 737.08 444.991 737.08Z" fill="#D9D9E3"/>
<path d="M337.591 387.591C337.591 387.591 317.087 405.406 317.573 407.837C318.06 410.269 327.786 566.38 327.786 566.38L333.136 667.536C333.136 667.536 326.327 691.366 329.732 696.715C333.136 702.065 324.868 703.524 324.868 703.524C324.868 703.524 359.884 735.135 374.474 721.518L388.091 544.981L425.538 673.372C425.538 673.372 431.86 741.457 439.155 741.457C446.45 741.457 476.116 742.916 475.629 739.026C475.143 735.135 477.088 705.469 473.684 687.961C470.28 670.454 447.423 531.851 447.423 531.851C447.423 531.851 445.458 413.029 450.574 401.922C455.69 390.816 447.909 379.144 447.909 379.144L413.866 366.013L373.015 370.877L337.591 387.591Z" fill="#270B8C"/>
<path d="M378.85 175.374C397.652 175.374 412.893 160.132 412.893 141.331C412.893 122.529 397.652 107.288 378.85 107.288C360.049 107.288 344.808 122.529 344.808 141.331C344.808 160.132 360.049 175.374 378.85 175.374Z" fill="#A0616A"/>
<path d="M461.526 214.766C459.844 210.008 457.01 205.741 453.275 202.346C449.541 198.951 445.024 196.535 440.128 195.313C430.318 192.845 420.722 189.593 411.434 185.586C411.434 185.586 376.905 202.122 370.097 202.122C363.288 202.122 363.288 197.745 363.288 197.745C363.288 197.745 345.78 216.225 336.54 218.17C327.3 220.116 313.683 242.973 318.546 255.617C321.849 263.724 326.632 271.145 332.649 277.502C332.649 277.502 330.704 345.588 337.026 358.232C337.026 358.232 321.464 387.898 336.054 389.843C350.643 391.789 406.571 384.98 416.298 391.789C426.024 398.597 444.018 390.33 446.45 399.57C448.881 408.81 454.231 410.755 454.231 410.755C454.231 410.755 462.499 397.625 457.635 389.843C452.772 382.062 461.526 214.766 461.526 214.766Z" fill="#D9D9E3"/>
<path d="M425.538 397.625L417.757 402.488C417.757 402.488 426.024 431.181 429.428 432.154C432.833 433.126 440.846 407.619 440.846 407.619L425.538 397.625Z" fill="#A0616A"/>
<path d="M351.994 154.277C353.163 154.813 354.569 154.014 355.258 152.929C357.882 148.794 353.051 143.463 354.097 138.679C354.935 134.847 359.29 132.572 360.181 128.751C361.046 125.039 358.38 120.854 360.182 117.495C361.593 114.863 365.12 114.171 368.07 114.632C371.021 115.093 373.822 116.39 376.803 116.572C380.775 116.814 384.561 115.065 388.445 114.199C392.329 113.333 397.067 113.672 399.352 116.93C402.286 121.114 399.31 126.939 400.331 131.946C401.142 135.921 410.385 138.712 411.223 136.023C413.151 129.756 412.755 123.005 410.109 117.006C408.967 114.445 407.413 112.021 406.862 109.272C406.114 105.539 407.291 101.532 406.058 97.9303C404.396 93.0766 398.896 90.6023 393.79 90.0997C388.685 89.5972 383.496 90.4967 378.42 89.7557C373.872 89.0919 369.469 87.1209 364.882 87.4065C359.378 87.7492 354.588 91.2955 350.773 95.2774C346.958 99.2592 343.721 103.839 339.388 107.25C338.062 108.163 336.838 109.217 335.738 110.393C333.531 113.082 333.307 116.914 333.921 120.338C334.535 123.763 335.871 127.029 336.435 130.462C336.965 133.689 336.801 136.985 337.03 140.246C337.258 143.508 337.935 146.868 339.899 149.482C340.686 150.55 341.706 151.424 342.881 152.038C344.056 152.652 345.356 152.99 346.682 153.025C347.6 153.047 348.376 152.221 349.303 152.437C350.462 152.706 350.965 153.806 351.994 154.277Z" fill="#2F2E41"/>
<path opacity="0.1" d="M442.316 223.277L458.122 214.766C458.122 214.766 496.542 306.195 487.301 331.484C478.061 356.773 442.559 408.81 442.559 408.81C442.559 408.81 414.352 402.974 417.27 397.138C420.188 391.302 439.155 353.855 440.614 348.992C442.073 344.129 451.799 312.517 447.423 309.113C443.046 305.709 434.535 226.681 434.535 226.681L442.316 223.277Z" fill="black"/>
<path d="M442.073 209.416L461.526 214.766C461.526 214.766 499.946 306.195 490.706 331.484C481.465 356.773 445.964 408.81 445.964 408.81C445.964 408.81 417.757 402.974 420.675 397.138C423.593 391.302 442.559 353.855 444.018 348.992C445.477 344.129 455.204 312.517 450.827 309.113C446.45 305.709 425.538 221.574 425.538 221.574L442.073 209.416Z" fill="#D9D9E3"/>
<path d="M652.184 286.205C652.184 365.63 541.101 430.017 404.074 430.017C267.046 430.017 155.964 365.63 155.964 286.205" stroke="#D68814" stroke-width="2" stroke-miterlimit="10"/>
<path d="M607.053 432.058C551.594 461.969 479.231 480.069 400.072 480.069C324.175 480.069 254.525 463.43 200.032 435.695" stroke="#D68814" stroke-width="2" stroke-miterlimit="10"/>
<path d="M527.978 111.906C633.522 139.647 708.69 200.667 715.68 272.536" stroke="#D68814" stroke-width="2" stroke-miterlimit="10"/>
<path d="M99.1633 225.823C116.947 193.137 149.434 164.373 192 142.274" stroke="#D68814" stroke-width="2" stroke-miterlimit="10"/>
<path d="M317.358 575.707H519.209C559.132 508.423 559.132 441.14 519.209 373.856H317.358C373.18 441.14 373.18 508.423 317.358 575.707Z" fill="#F2F2F2"/>
<path d="M497.887 412.304H384.146V426.722H497.887V412.304Z" fill="#FF9800"/>
<path d="M525.922 455.558H375.335V460.364H525.922V455.558Z" fill="white"/>
<path d="M525.922 480.388H375.335V485.194H525.922V480.388Z" fill="white"/>
<path d="M231.793 438.7H29.9424C-9.98079 371.416 -9.98079 304.132 29.9424 236.849H231.793C175.971 304.132 175.971 371.416 231.793 438.7Z" fill="#F2F2F2"/>
<path d="M166.111 260.879H52.3701V275.297H166.111V260.879Z" fill="#FF9800"/>
<path d="M178.126 300.928H27.5393V305.734H178.126V300.928Z" fill="white"/>
<path d="M178.126 325.759H27.5393V330.565H178.126V325.759Z" fill="white"/>
<path d="M178.126 350.59H27.5393V355.396H178.126V350.59Z" fill="white"/>
<path d="M178.126 375.421H27.5393V380.227H178.126V375.421Z" fill="white"/>
<path d="M447 302.851H648.851C688.774 235.567 688.774 168.284 648.851 101H447C502.822 168.284 502.822 235.567 447 302.851Z" fill="#F2F2F2"/>
<path d="M639.913 163.894H526.172V178.312H639.913V163.894Z" fill="#FF9800"/>
<path d="M664.744 203.944H514.157V208.75H664.744V203.944Z" fill="white"/>
</svg>
