<svg width="50" height="50" viewBox="0 0 512 512" fill="none" xmlns="http://www.w3.org/2000/svg">
<rect width="512" height="512" fill="#fff"/>
<path d="M256 512C397.385 512 512 397.385 512 256C512 114.615 397.385 0 256 0C114.615 0 0 114.615 0 256C0 397.385 114.615 512 256 512Z" fill="#126AFF"/>
<path d="M434.66 251.404C434.646 258.444 433.238 265.411 430.517 271.904C427.796 278.397 423.816 284.286 418.806 289.232C413.797 294.178 407.858 298.083 401.331 300.722C394.804 303.36 387.819 304.68 380.78 304.604H129.86C115.86 304.452 102.487 298.777 92.6507 288.813C82.8145 278.85 77.3118 265.405 77.34 251.404C77.3377 238.53 82.0612 226.103 90.6142 216.481C99.1671 206.859 110.955 200.711 123.74 199.204C119.993 192.536 118.036 185.012 118.06 177.364C118.052 168.39 120.724 159.618 125.735 152.174C130.746 144.729 137.867 138.952 146.184 135.582C154.501 132.212 163.636 131.404 172.415 133.261C181.195 135.118 189.22 139.555 195.46 146.004C199.236 132.652 207.382 120.952 218.594 112.777C229.806 104.603 243.436 100.425 257.303 100.914C271.17 101.402 284.473 106.528 295.082 115.472C305.691 124.415 312.993 136.659 315.82 150.244C323.098 145.839 331.524 143.704 340.022 144.109C348.519 144.515 356.703 147.444 363.528 152.522C370.354 157.601 375.511 164.598 378.342 172.62C381.172 180.643 381.548 189.327 379.42 197.564C379.86 197.524 380.34 197.524 380.78 197.524C387.856 197.523 394.862 198.917 401.4 201.624C407.937 204.332 413.877 208.301 418.88 213.304C423.883 218.307 427.852 224.247 430.56 230.784C433.267 237.322 434.661 244.328 434.66 251.404V251.404Z" fill="#EEEFEE"/>
<path d="M313.18 339.076L256.016 411.076L198.82 339.076H227.848V239.576H283.18V339.076H313.18Z" fill="#F6C863"/>
</svg>
