<svg  viewBox="0 0 512 512" width="150" height="150" xmlns="http://www.w3.org/2000/svg"><path d="m181 316c0 8.285156-6.714844 15-15 15s-15-6.714844-15-15 6.714844-15 15-15 15 6.714844 15 15zm0 0" fill="#6e6e6e"/><path d="m361 316c0 8.285156-6.714844 15-15 15s-15-6.714844-15-15 6.714844-15 15-15 15 6.714844 15 15zm0 0" fill="#6e6e6e"/><path d="m256 512c-68.113281 0-132.328125-26.703125-180.8125-75.1875s-75.1875-112.699219-75.1875-180.8125 26.703125-132.328125 75.1875-180.8125 112.699219-75.1875 180.8125-75.1875 132.328125 26.703125 180.8125 75.1875 75.1875 112.699219 75.1875 180.8125-26.703125 132.328125-75.1875 180.8125-112.699219 75.1875-180.8125 75.1875zm0-482c-124.617188 0-226 101.382812-226 226s101.382812 226 226 226 226-101.382812 226-226-101.382812-226-226-226zm0 0" fill="#5a5a5a"/><path d="m271 213.578125v-47.578125c0-8.285156-6.714844-15-15-15s-15 6.714844-15 15v47.578125c-17.460938 6.195313-30 22.867187-30 42.421875 0 24.8125 20.1875 45 45 45s45-20.1875 45-45c0-19.554688-12.539062-36.226562-30-42.421875zm-15 57.421875c-8.269531 0-15-6.730469-15-15s6.730469-15 15-15 15 6.730469 15 15-6.730469 15-15 15zm0 0" fill="#ff3636"/><path d="m395.050781 119.4375c-.359375-.457031-.742187-.902344-1.164062-1.324219s-.871094-.804687-1.328125-1.167969c-35.203125-34.578124-83.429688-55.945312-136.558594-55.945312s-101.355469 21.367188-136.558594 55.945312c-.457031.363282-.90625.746094-1.328125 1.167969s-.804687.867188-1.167969 1.324219c-34.578124 35.207031-55.945312 83.433594-55.945312 136.5625 0 55.285156 23.6875 108.222656 64.988281 145.230469 6.171875 5.527343 15.65625 5.007812 21.183594-1.160157 5.527344-6.171874 5.007813-15.65625-1.160156-21.183593-31.203125-27.957031-50.515625-66.644531-54.308594-107.886719h14.296875c8.285156 0 15-6.714844 15-15s-6.714844-15-15-15h-14.3125c3.101562-34.25 16.707031-65.511719 37.574219-90.527344l10.066406 10.066406c2.929687 2.929688 6.769531 4.394532 10.605469 4.394532 3.839844 0 7.679687-1.464844 10.605468-4.394532 5.859376-5.855468 5.859376-15.351562 0-21.210937l-10.066406-10.066406c25.015625-20.867188 56.277344-34.472657 90.527344-37.574219v14.3125c0 8.285156 6.714844 15 15 15s15-6.714844 15-15v-14.3125c34.25 3.101562 65.511719 16.707031 90.527344 37.574219l-10.066406 10.066406c-5.859376 5.859375-5.859376 15.355469 0 21.210937 2.925781 2.929688 6.765624 4.394532 10.605468 4.394532 3.835938 0 7.675782-1.464844 10.605469-4.394532l10.066406-10.066406c20.863281 25.015625 34.46875 56.277344 37.570313 90.527344h-14.308594c-8.285156 0-15 6.714844-15 15s6.714844 15 15 15h14.296875c-3.792969 41.242188-23.105469 79.929688-54.308594 107.886719-6.167969 5.527343-6.6875 15.011719-1.160156 21.179687 2.964844 3.308594 7.0625 4.992188 11.175781 4.992188 3.566406 0 7.144532-1.261719 10.007813-3.828125 41.300781-37.007813 64.988281-89.945313 64.988281-145.230469 0-53.128906-21.367188-101.355469-55.949219-136.5625zm0 0" fill="#ff9f00"/><path d="m316 421h-120c-8.285156 0-15-6.714844-15-15v-60c0-8.285156 6.714844-15 15-15h120c8.285156 0 15 6.714844 15 15v60c0 8.285156-6.714844 15-15 15zm-105-30h90v-30h-90zm0 0" fill="#d3d3d8"/></svg>